<svg width="400" height="200" viewBox="0 0 400 200" fill="none" xmlns="http://www.w3.org/2000/svg">
<rect width="400" height="200" fill="white"/>
<path fill-rule="evenodd" clip-rule="evenodd" d="M290.526 178.415C308.449 174.255 320 151.966 320 125.989C320 100.012 309.474 80.5537 292.632 73.5636C284.211 71.609 281.675 71.3526 273.684 73.5636C254.737 78.8062 240 97.0354 240 125.989C240 154.943 248.991 173.652 270.044 178.415C278.465 180.321 280.57 180.726 290.526 178.415ZM270.947 118.475C271.106 117.614 271.278 116.687 271.579 115.688C272.068 114.064 273.264 105.982 274.498 97.6391C275.919 88.0321 277.391 78.0791 277.895 77.2426C280 73.7475 282.105 71.9999 284.211 75.495C285.2 77.1373 285.694 82.953 286.281 89.8615C287.254 101.301 288.481 115.738 292.632 119.183C293.074 119.55 293.469 119.898 293.845 120.228C297.051 123.045 298.831 124.609 315.789 126.173C317.193 126.756 319.158 128.27 315.789 129.668C315.218 129.905 314.382 130.217 313.358 130.598C306.833 133.028 292.662 138.305 290.526 145.396C289.731 148.036 288.279 153.637 286.746 159.55C285.032 166.161 283.217 173.162 282.105 176.851C281.404 178.017 279.579 179.648 277.895 176.851C276.171 173.989 273.362 157.523 272.134 150.317C271.862 148.725 271.668 147.585 271.579 147.144C269.882 138.691 255.872 134.781 248.298 132.668C246.476 132.159 245.027 131.755 244.211 131.416C242.328 130.634 240 127.921 244.211 127.921C269.474 126.423 269.989 123.641 270.947 118.475Z" fill="black"/>
<path fill-rule="evenodd" clip-rule="evenodd" d="M105.474 178.415C87.5513 174.255 76 151.966 76 125.989C76 100.012 86.5263 80.5537 103.368 73.5636C111.789 71.609 114.325 71.3526 122.316 73.5636C141.263 78.8062 156 97.0354 156 125.989C156 154.943 147.009 173.652 125.956 178.415C117.535 180.321 115.43 180.726 105.474 178.415ZM125.053 118.475C124.894 117.614 124.722 116.687 124.421 115.688C123.932 114.064 122.736 105.982 121.502 97.6391C120.081 88.0321 118.609 78.0791 118.105 77.2426C116 73.7475 113.895 71.9999 111.789 75.495C110.8 77.1373 110.306 82.953 109.719 89.8615C108.746 101.301 107.519 115.738 103.368 119.183C102.926 119.55 102.531 119.898 102.155 120.228C98.9492 123.045 97.1692 124.609 80.2105 126.173C78.807 126.756 76.8421 128.27 80.2105 129.668C80.7819 129.905 81.6179 130.217 82.6423 130.598C89.1673 133.028 103.338 138.305 105.474 145.396C106.269 148.036 107.721 153.637 109.254 159.55C110.968 166.161 112.783 173.162 113.895 176.851C114.596 178.017 116.421 179.648 118.105 176.851C119.829 173.989 122.638 157.523 123.866 150.317C124.138 148.725 124.332 147.585 124.421 147.144C126.118 138.691 140.128 134.781 147.702 132.668C149.524 132.159 150.973 131.755 151.789 131.416C153.672 130.634 156 127.921 151.789 127.921C126.526 126.423 126.011 123.641 125.053 118.475Z" fill="black"/>
</svg>
