<svg width="400" height="200" viewBox="0 0 400 200" fill="none" xmlns="http://www.w3.org/2000/svg">
<rect width="400" height="200" fill="white"/>
<path d="M149.538 172H168C164 149.333 160.615 104 120 104C83.0769 104 76 149.333 72 172H90.4615C93.6615 154.37 92.4467 121 120 121C147.553 121 146.338 154.37 149.538 172Z" fill="black"/>
<path d="M254.462 172H236C240 149.333 243.385 104 284 104C320.923 104 328 149.333 332 172H313.538C310.338 154.37 311.553 121 284 121C256.447 121 257.662 154.37 254.462 172Z" fill="black"/>
</svg>
