<svg width="400" height="200" viewBox="0 0 400 200" fill="none" xmlns="http://www.w3.org/2000/svg">
<rect width="400" height="200" fill="white"/>
<path d="M118 44H102C91.9999 70 90.2072 115.451 146.348 115.451C197.384 115.451 202.471 67.8171 208 44H194C189.577 62.5244 184.433 96 146.348 96C108.262 96 110 62 118 44Z" fill="black"/>
<path d="M208 44H194C199.529 67.8171 197.512 115.451 253.652 115.451C304.689 115.451 320 72 312 44H294.482C302 68 294.085 98 256 98C217.914 98 212.423 62.5244 208 44Z" fill="black"/>
</svg>
